<?xml version="1.0" encoding="utf-8"?>
<!-- Generator: Adobe Illustrator 27.3.1, SVG Export Plug-In . SVG Version: 6.00 Build 0)  -->
<svg version="1.1" id="Layer_1" xmlns="http://www.w3.org/2000/svg" xmlns:xlink="http://www.w3.org/1999/xlink" x="0px" y="0px"
	 viewBox="0 0 926.1 239.3" style="enable-background:new 0 0 926.1 239.3;" xml:space="preserve">
<style type="text/css">
	.st0{fill:none;stroke:url(#SVGID_1_);stroke-miterlimit:10;}
	.st1{fill:none;stroke:url(#SVGID_00000089532492885113556810000012263077543570061735_);stroke-miterlimit:10;}
	.st2{fill:none;stroke:url(#SVGID_00000098910247015139852490000009532511405445203095_);stroke-miterlimit:10;}
	.st3{fill:none;stroke:url(#SVGID_00000174593375517659495080000008487505679573564340_);stroke-miterlimit:10;}
	.st4{fill:none;stroke:url(#SVGID_00000083085036961884822720000016774610482272319152_);stroke-miterlimit:10;}
	.st5{fill:none;stroke:url(#SVGID_00000113326300232026367570000004984203204809906861_);stroke-miterlimit:10;}
	.st6{fill:none;stroke:url(#SVGID_00000052782979637291681900000002800942310995366813_);stroke-miterlimit:10;}
	.st7{fill:none;stroke:url(#SVGID_00000170255333206223524610000015647892236819178149_);stroke-miterlimit:10;}
	.st8{fill:none;stroke:url(#SVGID_00000178202569490891796180000009514939600253466298_);stroke-miterlimit:10;}
	.st9{fill:none;stroke:url(#SVGID_00000066498945661364487670000006465589971203815321_);stroke-miterlimit:10;}
	.st10{fill:none;stroke:url(#SVGID_00000163760542458616161730000018272992573082908329_);stroke-miterlimit:10;}
	.st11{fill:none;stroke:url(#SVGID_00000177454703698379437440000009560733263495863727_);stroke-miterlimit:10;}
	.st12{fill:none;stroke:url(#SVGID_00000173162689090523431600000013494498203245268134_);stroke-miterlimit:10;}
	.st13{fill:none;stroke:url(#SVGID_00000018941284506339428330000012818472888827902601_);stroke-miterlimit:10;}
</style>
<linearGradient id="SVGID_1_" gradientUnits="userSpaceOnUse" x1="1.564238e-02" y1="120.9461" x2="918.7496" y2="120.9461" gradientTransform="matrix(1 0 0 -1 0 242)">
	<stop  offset="0" style="stop-color:#FF7088"/>
	<stop  offset="0.5" style="stop-color:#FF3B5D"/>
	<stop  offset="1" style="stop-color:#F50029"/>
</linearGradient>
<path class="st0" d="M918.4,79.7c-22.5-22-61.4-24.3-86.4-5.1c-15.4,11.8-24.8,29.7-36.6,45.1s-28.7,29.7-48.1,28.6
	c-23.8-1.3-40-24.4-49.7-46.2s-18-46.5-38.3-59c-29-17.7-68.2-0.6-89.9,25.6s-32.4,59.7-50.6,88.4c-18.2,28.7-49.6,54.2-83.1,48.3
	c-25.2-4.4-44.3-25.5-56.6-47.9c-12.3-22.4-19.9-47.3-33.7-68.9c-13.8-21.6-36.2-40.3-61.7-39.7c-50.6,1.2-76.1,72.1-126.4,77.5
	c-21.3,2.3-41.7-8.1-60.7-18.1S57.1,88.1,35.8,90.7c-21.3,2.7-41.3,24.6-33.6,44.6"/>
<linearGradient id="SVGID_00000168822080102744003560000005081042785074075059_" gradientUnits="userSpaceOnUse" x1="2.7431" y1="119.7166" x2="919.3212" y2="119.7166" gradientTransform="matrix(1 0 0 -1 0 242)">
	<stop  offset="0" style="stop-color:#4493EE"/>
	<stop  offset="0.5" style="stop-color:#2681EB"/>
	<stop  offset="1" style="stop-color:#1160BB"/>
</linearGradient>
<path style="fill:none;stroke:url(#SVGID_00000168822080102744003560000005081042785074075059_);stroke-miterlimit:10;" d="
	M919,82.2c-19.8-16.6-49.4-18.6-72.8-6.9c-4.4,2.2-8.5,4.8-12.4,8c-15.1,12.4-24.8,30.3-37.3,45.2c-1.3,1.5-2.6,3-4,4.5
	c-12.1,12.9-27.9,23-45.2,21.2c-15.2-1.5-27.3-11.7-36.5-24.6c-5.1-7.2-9.4-15.3-12.8-23.2c-9.5-22.1-17.5-47-37-60.5
	c-27.7-19.1-64.4-4.7-88.4,17.6c-8.7,8.1-17.1,17.7-23.8,28.7s-12.2,22.7-17.8,34.4c-5.7,11.6-11.8,23.1-19,33.7
	c-18.8,27.5-49.3,52.2-82.2,46.4c-7.6-1.3-14.6-4.1-21.1-8c-14.7-8.9-26.3-23.4-34.8-38.6c-12.2-21.9-19.8-46.3-33.1-67.6
	c-13.3-21.3-34.7-39.9-59.5-40.3c-32.1-0.5-54.7,27.4-80.3,48.6c-13.4,11.1-27.5,20.3-44.3,22.4c-9.7,1.2-19.3-0.1-28.6-2.8
	c-10.5-3-20.8-7.7-30.7-12.4c-13.5-6.4-27.8-13-42.6-15.4c-5.6-0.9-11.3-1.2-17-0.6c-20.7,2-40.1,21.3-33.1,38.5"/>
<linearGradient id="SVGID_00000049198157528495153470000015414271716681319553_" gradientUnits="userSpaceOnUse" x1="5.5627" y1="118.6155" x2="919.8914" y2="118.6155" gradientTransform="matrix(1 0 0 -1 0 242)">
	<stop  offset="0" style="stop-color:#594ED0"/>
	<stop  offset="0.5" style="stop-color:#4338CA"/>
	<stop  offset="1" style="stop-color:#352BA1"/>
</linearGradient>
<path style="fill:none;stroke:url(#SVGID_00000049198157528495153470000015414271716681319553_);stroke-miterlimit:10;" d="
	M919.6,84.8c-20.5-14.7-49.3-14.2-71.9-1.3c-4.2,2.4-8.3,5.2-12,8.5c-14.8,13-24.9,30.9-38,45.3c-1.3,1.5-2.7,2.9-4.2,4.3
	c-12.7,12.3-28.8,21-46.1,18.4c-15.1-2.2-27.2-12.7-36.2-25.7c-5.1-7.4-9.3-15.5-12.6-23.6c-9.4-22.4-17.1-47.5-35.6-62
	c-26.3-20.4-61.2-9-87,9.6c-10.3,7.4-21,17.1-28.9,29.1s-13.9,25.4-20.2,38.5s-13.2,25.9-21.6,37.6c-19.2,26.4-49.1,50.1-81.3,44.6
	c-7.4-1.3-14.3-4-20.7-7.8c-14.5-8.7-26-22.7-34.4-37.7c-12-21.3-19.6-45.3-32.6-66.3c-12.9-21-33.3-39.6-57.2-41
	c-30.9-1.8-53.8,23.2-79.3,42.9c-13.3,10.3-27.2,19.2-43.5,21.6c-9.5,1.4-18.7,0.5-27.8-1.7c-10.3-2.4-20.3-6.5-30-10.6
	C85.2,102,71.2,96.1,56.7,93.8c-5.5-0.9-11-1.2-16.6-0.8C19.8,94.4,1,111.1,7.3,125.6"/>
<linearGradient id="SVGID_00000065783127714681932540000006186428179389145778_" gradientUnits="userSpaceOnUse" x1="8.1432" y1="124.2452" x2="920.3575" y2="124.2452">
	<stop  offset="0" style="stop-color:#FFC847"/>
	<stop  offset="0.5" style="stop-color:#FFB300"/>
	<stop  offset="1" style="stop-color:#E09D00"/>
</linearGradient>
<path style="fill:none;stroke:url(#SVGID_00000065783127714681932540000006186428179389145778_);stroke-miterlimit:10;" d="
	M920.1,87.4c-21.3-12.8-49.1-9.7-71,4.3c-4.1,2.6-8,5.7-11.7,9.1c-14.6,13.6-25,31.6-38.7,45.3c-1.4,1.4-2.9,2.8-4.4,4.1
	c-13.3,11.7-29.7,19-47,15.7c-14.9-2.9-27-13.6-35.9-26.9c-5-7.5-9.2-15.7-12.5-23.9c-9.3-22.7-16.6-48-34.3-63.5
	c-24.9-21.8-58.4-13.6-85.5,1.6c-12,6.7-24.9,16.4-33.9,29.6c-9.1,13.1-15.7,28-22.5,42.5c-6.8,14.6-14.6,28.8-24.3,41.4
	c-19.4,25.4-48.9,48.1-80.4,42.7c-7.3-1.2-14.1-3.9-20.3-7.6c-14.4-8.4-25.7-22.1-34.1-36.7c-11.9-20.8-19.5-44.3-32-65
	c-12.5-20.8-31.9-39.2-54.9-41.7c-29.7-3.1-52.9,18.9-78.2,37.2c-13.2,9.6-26.9,18.1-42.8,20.8c-9.2,1.6-18.2,1-27-0.6
	c-10-1.9-19.8-5.2-29.4-8.7c-13.1-4.7-26.9-9.8-41.1-12c-5.4-0.8-10.8-1.2-16.2-1c-19.7,1-38,15.1-32.3,26.9"/>
<linearGradient id="SVGID_00000104680296553717815390000005570546991444304567_" gradientUnits="userSpaceOnUse" x1="10.7433" y1="117.0702" x2="920.9212" y2="117.0702" gradientTransform="matrix(1 0 0 -1 0 242)">
	<stop  offset="0" style="stop-color:#F5933D"/>
	<stop  offset="0.5" style="stop-color:#EB750E"/>
	<stop  offset="1" style="stop-color:#D46A0D"/>
</linearGradient>
<path style="fill:none;stroke:url(#SVGID_00000104680296553717815390000005570546991444304567_);stroke-miterlimit:10;" d="
	M920.7,90c-22.1-10.9-48.9-5.3-70.1,10c-3.9,2.8-7.8,6.1-11.4,9.6c-14.3,14.2-25,32.2-39.4,45.4c-1.5,1.4-3,2.7-4.6,3.9
	c-14,11.1-30.7,17.1-47.9,12.9c-14.8-3.6-26.9-14.6-35.6-28c-5-7.6-9.1-16-12.4-24.3c-9.2-23-16.2-48.5-32.9-64.9
	c-23.5-23.2-56-18.5-84-6.4c-13.9,6-28.7,15.8-39,30s-17.4,30.6-24.9,46.6c-7.4,16-16,31.7-26.9,45.3
	c-19.6,24.4-48.6,46.1-79.5,40.8c-7.1-1.2-13.8-3.7-20-7.3c-14.2-8.2-25.4-21.4-33.7-35.7c-11.8-20.3-19.4-43.3-31.5-63.8
	s-30.5-38.9-52.6-42.4c-28.6-4.5-52,14.6-77.2,31.6c-13.1,8.8-26.6,17-42,20c-8.9,1.7-17.7,1.6-26.2,0.4c-9.7-1.3-19.3-4-28.7-6.8
	c-12.8-3.8-26.4-8.2-40.3-10.3c-5.3-0.8-10.6-1.2-15.8-1.2c-19.3,0.2-37,11.6-32,20.7"/>
<linearGradient id="SVGID_00000082331979718045537960000016941226561869060755_" gradientUnits="userSpaceOnUse" x1="13.5305" y1="117.0477" x2="921.4828" y2="117.0477" gradientTransform="matrix(1 0 0 -1 0 242)">
	<stop  offset="0" style="stop-color:#47F0FF"/>
	<stop  offset="0.5" style="stop-color:#00C6D8"/>
	<stop  offset="1" style="stop-color:#00A8B8"/>
</linearGradient>
<path style="fill:none;stroke:url(#SVGID_00000082331979718045537960000016941226561869060755_);stroke-miterlimit:10;" d="
	M921.3,92.5c-22.9-9-48.8-0.9-69.2,15.6c-3.8,3.1-7.5,6.5-11,10.2c-14,14.7-25.1,32.8-40.1,45.5c-1.5,1.3-3.1,2.5-4.8,3.7
	c-14.6,10.4-31.6,15.2-48.8,10.1c-14.7-4.3-26.7-15.6-35.4-29.2c-4.9-7.8-9-16.2-12.2-24.7c-9.1-23.3-15.8-49-31.5-66.4
	c-22.1-24.5-53.7-23.7-82.6-14.4c-15.9,5.1-32.6,15.2-44.1,30.5s-19.2,33.2-27.2,50.7s-17.3,34.6-29.5,49.2
	c-19.7,23.5-48.4,44.1-78.6,38.9c-7-1.2-13.5-3.6-19.6-7.1c-14.1-7.9-25-20.8-33.3-34.7c-11.7-19.7-19.2-42.2-30.9-62.5
	c-11.7-20.2-29.1-38.5-50.3-43c-27.4-5.8-51.1,10.4-76.1,25.9c-13,8.1-26.3,15.9-41.2,19.1c-8.6,1.9-17.1,2.2-25.5,1.5
	c-9.5-0.8-18.9-2.7-28.1-4.9c-12.6-3-25.9-6.6-39.5-8.5c-5.1-0.7-10.3-1.2-15.5-1.3c-18.8-0.4-35.9,8.4-31.6,14.7"/>
<linearGradient id="SVGID_00000096052660677441014000000006333458921699160487_" gradientUnits="userSpaceOnUse" x1="15.9792" y1="117.3278" x2="922.0435" y2="117.3278" gradientTransform="matrix(1 0 0 -1 0 242)">
	<stop  offset="0" style="stop-color:#FF7088"/>
	<stop  offset="0.5" style="stop-color:#FF3B5D"/>
	<stop  offset="1" style="stop-color:#F50029"/>
</linearGradient>
<path style="fill:none;stroke:url(#SVGID_00000096052660677441014000000006333458921699160487_);stroke-miterlimit:10;" d="
	M921.9,95.1c-23.7-7.1-48.6,3.6-68.3,21.2c-3.7,3.3-7.2,6.9-10.7,10.7c-13.7,15.3-25.2,33.5-40.8,45.6c-1.6,1.2-3.3,2.4-5,3.5
	c-15.2,9.8-32.6,13.2-49.7,7.4c-14.6-5-26.5-16.6-35.1-30.3c-4.9-7.9-8.9-16.5-12.1-25c-9-23.5-15.3-49.4-30.2-67.9
	c-20.8-25.9-51.6-29.1-81.1-22.4C571,42,552.5,52.4,539.8,68.8c-12.7,16.3-21,35.8-29.6,54.7c-8.6,19-18.6,37.5-32.2,53.1
	c-19.7,22.6-48.1,42-77.7,37.1c-6.8-1.1-13.3-3.5-19.3-6.8c-13.9-7.7-24.7-20.1-32.9-33.7C336.6,154,329,132,317.7,112
	s-27.6-38.2-48-43.7c-26.2-7.1-50.1,6.1-75,20.2c-12.9,7.3-26,14.8-40.5,18.3c-8.4,2.1-16.6,2.7-24.7,2.5c-9.2-0.2-18.4-1.4-27.4-3
	c-12.4-2.1-25.4-5-38.8-6.8c-5-0.7-10.1-1.2-15.1-1.5c-18.3-1-34.9,5.1-31.2,8.8"/>
<linearGradient id="SVGID_00000165925977295413260130000001557997006923579797_" gradientUnits="userSpaceOnUse" x1="18.9358" y1="118.2959" x2="922.6038" y2="118.2959" gradientTransform="matrix(1 0 0 -1 0 242)">
	<stop  offset="0" style="stop-color:#4493EE"/>
	<stop  offset="0.5" style="stop-color:#2681EB"/>
	<stop  offset="1" style="stop-color:#1160BB"/>
</linearGradient>
<path style="fill:none;stroke:url(#SVGID_00000165925977295413260130000001557997006923579797_);stroke-miterlimit:10;" d="
	M922.5,97.7c-24.5-5.2-48.5,8-67.4,26.9c-3.5,3.5-7,7.3-10.4,11.3c-13.4,15.9-25.2,34.1-41.4,45.7c-1.7,1.2-3.4,2.3-5.2,3.3
	c-15.8,9.2-33.5,11.3-50.6,4.6c-14.5-5.7-26.4-17.6-34.8-31.5c-4.8-8-8.8-16.7-12-25.4c-8.9-23.8-14.9-49.9-28.8-69.4
	c-19.4-27.2-49.4-34.8-79.6-30.4c-19.9,2.9-40.3,13.9-54.2,31.3s-22.7,38.4-31.9,58.8c-9.2,20.4-19.9,40.4-34.8,56.9
	c-19.7,21.8-47.9,40-76.8,35.2c-6.7-1.1-13-3.4-18.9-6.6c-13.8-7.5-24.4-19.5-32.5-32.7c-11.4-18.6-18.9-40.2-29.8-59.9
	S287.2,78,267.7,71.4c-25-8.5-49.2,1.9-74,14.5c-12.8,6.6-25.7,13.7-39.7,17.5c-8.1,2.2-16.1,3.3-23.9,3.6c-9,0.4-17.9-0.2-26.8-1.1
	c-12.2-1.3-24.9-3.4-38-5.1c-4.9-0.6-9.8-1.2-14.7-1.7c-17.8-1.6-33.8,1.9-30.8,2.8"/>
<linearGradient id="SVGID_00000001655005738311369290000012029571379609408932_" gradientUnits="userSpaceOnUse" x1="21.5714" y1="119.6326" x2="923.1647" y2="119.6326" gradientTransform="matrix(1 0 0 -1 0 242)">
	<stop  offset="0" style="stop-color:#594ED0"/>
	<stop  offset="0.5" style="stop-color:#4338CA"/>
	<stop  offset="1" style="stop-color:#352BA1"/>
</linearGradient>
<path style="fill:none;stroke:url(#SVGID_00000001655005738311369290000012029571379609408932_);stroke-miterlimit:10;" d="
	M923.1,100.2c-25.3-3.3-48.3,12.4-66.6,32.5c-3.4,3.7-6.7,7.7-10,11.8c-13.1,16.5-25.3,34.8-42.1,45.8c-1.7,1.1-3.5,2.2-5.4,3.2
	c-16.4,8.6-34.5,9.4-51.5,1.8c-14.3-6.3-26.2-18.6-34.5-32.6c-4.8-8.2-8.6-16.9-11.8-25.7c-8.8-24.1-14.5-50.4-27.5-70.9
	c-18-28.5-47.2-40.6-78.2-38.4c-21.9,1.6-44.2,13.3-59.3,31.8s-24.5,41-34.3,62.9s-21.1,43.4-37.4,60.8c-19.6,21-47.6,38-75.9,33.3
	c-6.5-1.1-12.7-3.2-18.6-6.3c-13.6-7.2-24-18.8-32.1-31.8c-11.3-18.1-18.8-39.2-29.3-58.6s-24.8-37.4-43.4-45.1
	c-23.9-9.8-48.3-2.4-72.9,8.8c-12.8,5.8-25.4,12.5-38.9,16.7c-7.8,2.4-15.5,3.8-23.1,4.6c-8.7,0.9-17.4,1.1-26.1,0.8
	c-11.9-0.4-24.4-1.8-37.2-3.4c-4.8-0.6-9.6-1.2-14.3-1.8c-17.3-2.2-32.7-1.3-30.4-3.2"/>
<linearGradient id="SVGID_00000022557798405300209790000008067644018866523265_" gradientUnits="userSpaceOnUse" x1="23.8673" y1="121.5627" x2="923.6268" y2="121.5627" gradientTransform="matrix(1 0 0 -1 0 242)">
	<stop  offset="0" style="stop-color:#FFC847"/>
	<stop  offset="0.5" style="stop-color:#FFB300"/>
	<stop  offset="1" style="stop-color:#E09D00"/>
</linearGradient>
<path style="fill:none;stroke:url(#SVGID_00000022557798405300209790000008067644018866523265_);stroke-miterlimit:10;" d="
	M923.6,102.8c-26.1-1.4-48.2,16.9-65.7,38.1c-3.2,3.9-6.5,8.1-9.7,12.3c-12.8,17.1-25.4,35.4-42.8,45.9c-1.8,1.1-3.7,2.1-5.6,3
	c-17,8-35.4,7.4-52.4-0.9c-14.2-7-26.1-19.5-34.2-33.8c-4.7-8.3-8.5-17.2-11.7-26.1c-8.7-24.4-14-50.8-26.1-72.4
	c-16.7-29.9-44.9-46.6-76.7-46.5c-23.9,0.1-48,12.6-64.3,32.2s-26.3,43.6-36.6,67c-10.4,23.4-22.3,46.4-40,64.7
	c-19.6,20.2-47.4,35.9-75,31.4c-6.4-1-12.5-3.1-18.2-6.1c-13.5-7-23.7-18.1-31.8-30.8c-11.1-17.5-18.7-38.2-28.7-57.3
	c-10-19.2-23.4-37.1-41.2-45.8c-22.7-11.1-47.4-6.7-71.9,3.1c-12.7,5.1-25.1,11.4-38.2,15.9c-7.6,2.6-15,4.4-22.4,5.7
	c-8.4,1.5-17,2.3-25.5,2.6c-11.7,0.4-23.9-0.3-36.5-1.7c-4.7-0.5-9.3-1.3-13.9-2c-16.8-2.9-31.7-4.6-30-9.2"/>
<linearGradient id="SVGID_00000070831566219909345400000008118464385979269819_" gradientUnits="userSpaceOnUse" x1="26.6505" y1="123.4268" x2="924.2112" y2="123.4268" gradientTransform="matrix(1 0 0 -1 0 242)">
	<stop  offset="0" style="stop-color:#F5933D"/>
	<stop  offset="0.5" style="stop-color:#EB750E"/>
	<stop  offset="1" style="stop-color:#D46A0D"/>
</linearGradient>
<path style="fill:none;stroke:url(#SVGID_00000070831566219909345400000008118464385979269819_);stroke-miterlimit:10;" d="
	M924.2,105.4c-26.9,0.6-48,21.3-64.8,43.8c-3.1,4.1-6.2,8.5-9.4,12.9c-12.6,17.7-25.4,36-43.5,45.9c-1.9,1-3.8,2-5.8,2.8
	c-17.6,7.4-36.4,5.5-53.2-3.7c-14.1-7.7-25.9-20.5-33.9-34.9c-4.7-8.5-8.4-17.4-11.6-26.5c-8.5-24.7-13.6-51.3-24.7-73.9
	c-15.4-31.2-42.5-52.6-75.2-54.5c-25.8-1.5-51.9,12-69.4,32.7c-17.5,20.6-28,46.2-39,71c-10.9,24.8-23.5,49.5-42.7,68.6
	c-19.5,19.4-47.1,33.9-74.1,29.6c-6.2-1-12.2-3-17.9-5.8c-13.3-6.7-23.4-17.5-31.4-29.8c-11-17-18.5-37.1-28.1-56
	s-21.9-36.7-38.9-46.4c-21.5-12.4-46.5-10.9-70.8-2.5C177.2,83.1,165,89,152.4,93.8c-7.3,2.7-14.5,5-21.6,6.8
	c-8.2,2.1-16.5,3.6-24.8,4.5c-11.5,1.3-23.5,1.3-35.7,0c-4.5-0.5-9.1-1.3-13.5-2.2c-16.3-3.5-30.6-7.8-29.6-15.1"/>
<linearGradient id="SVGID_00000083077988574714862030000007763170240578381222_" gradientUnits="userSpaceOnUse" x1="29.0952" y1="124.6058" x2="924.8451" y2="124.6058" gradientTransform="matrix(1 0 0 -1 0 242)">
	<stop  offset="0" style="stop-color:#47F0FF"/>
	<stop  offset="0.5" style="stop-color:#00C6D8"/>
	<stop  offset="1" style="stop-color:#00A8B8"/>
</linearGradient>
<path style="fill:none;stroke:url(#SVGID_00000083077988574714862030000007763170240578381222_);stroke-miterlimit:10;" d="
	M924.8,108c-27.6,2.5-47.8,25.7-63.9,49.4c-3,4.4-6,8.9-9,13.4c-12.3,18.2-25.5,36.7-44.2,46c-1.9,1-3.9,1.8-6,2.6
	c-18.2,6.8-37.3,3.6-54.1-6.4c-14-8.4-25.8-21.5-33.7-36.1c-4.6-8.6-8.3-17.6-11.4-26.8c-8.4-25-13.2-51.7-23.4-75.4
	c-14.1-32.5-40-58.6-73.8-62.5c-27.6-3.1-55.8,11.4-74.5,33.1C512.1,67,501,94.1,489.5,120.4s-24.7,52.6-45.3,72.4
	c-19.4,18.7-46.9,31.9-73.2,27.7c-6.1-1-11.9-2.8-17.5-5.6c-13.2-6.5-23.1-16.8-31-28.8c-10.9-16.4-18.4-36.1-27.6-54.8
	c-9.2-18.6-20.6-36.3-36.6-47.1C237.9,70.6,212.7,69,188.5,76c-12.5,3.6-24.5,9.2-36.6,14.3c-7,2.9-13.9,5.5-20.8,7.8
	c-7.9,2.6-16,4.9-24.2,6.4c-11.3,2.1-23,2.9-34.9,1.7c-4.4-0.4-8.8-1.3-13.1-2.4c-15.9-4-29.6-11-29.3-21"/>
<linearGradient id="SVGID_00000078755475348273943910000009363617234917847463_" gradientUnits="userSpaceOnUse" x1="31.6002" y1="123.5545" x2="925.4766" y2="123.5545" gradientTransform="matrix(1 0 0 -1 0 242)">
	<stop  offset="0" style="stop-color:#FF7088"/>
	<stop  offset="0.5" style="stop-color:#FF3B5D"/>
	<stop  offset="1" style="stop-color:#F50029"/>
</linearGradient>
<path style="fill:none;stroke:url(#SVGID_00000078755475348273943910000009363617234917847463_);stroke-miterlimit:10;" d="
	M925.4,110.5c-28.4,4.4-47.7,30.2-63,55c-2.8,4.6-5.7,9.3-8.7,14c-12,18.8-25.6,37.3-44.9,46.1c-2,0.9-4.1,1.7-6.2,2.4
	c-18.9,6.1-38.3,1.7-55-9.2c-13.9-9-25.6-22.5-33.4-37.2c-4.6-8.7-8.2-17.9-11.3-27.2c-8.3-25.3-12.8-52.2-22-76.9
	C668.2,43.7,643.5,12.8,608.6,7c-29.4-4.8-59.6,10.7-79.5,33.5c-19.9,22.8-31.6,51.4-43.7,79.2c-12.1,27.7-25.8,55.7-47.9,76.3
	c-19.3,18-46.6,29.9-72.3,25.8c-5.9-0.9-11.7-2.7-17.2-5.4c-13-6.3-22.7-16.2-30.6-27.8c-10.7-15.9-18.2-35.1-27-53.5
	s-19.1-35.9-34.3-47.8c-19.2-15-44.6-19.4-68.7-13.9c-12.4,2.9-24.2,8.1-35.9,13.4c-6.7,3.1-13.4,6.1-20,8.9
	c-7.6,3.2-15.5,6.1-23.5,8.3c-11,3-22.5,4.5-34.2,3.5c-4.3-0.4-8.6-1.3-12.8-2.5c-15.4-4.6-28.5-14.2-28.9-27"/>
<linearGradient id="SVGID_00000024696762421048196710000010595313008790134912_" gradientUnits="userSpaceOnUse" x1="34.1013" y1="122.3156" x2="926.1055" y2="122.3156" gradientTransform="matrix(1 0 0 -1 0 242)">
	<stop  offset="0" style="stop-color:#4493EE"/>
	<stop  offset="0.5" style="stop-color:#2681EB"/>
	<stop  offset="1" style="stop-color:#1160BB"/>
</linearGradient>
<path style="fill:none;stroke:url(#SVGID_00000024696762421048196710000010595313008790134912_);stroke-miterlimit:10;" d="
	M926,113.1c-29.2,6.3-47.5,34.6-62.1,60.7s-31.6,54.8-60.4,62.9c-35.5,10.1-72.1-17.4-89-50.3S694,115.6,682.7,80.5
	C671.3,45.3,647.9,9.6,611.8,2c-31.2-6.6-63.5,10.1-84.6,34c-21.1,23.9-33.3,54-46,83.3c-12.7,29.2-26.8,58.9-50.5,80.2
	s-59.3,32.3-88.2,18.8c-47.7-22.4-49.6-92.2-88.7-127.5c-18-16.3-43.7-23.7-67.7-19.6c-19.4,3.3-36.8,13.6-54.4,22.6
	s-36.6,17-56.3,15.3C55.8,107.4,36,92.9,34.6,73.3"/>
</svg>
