<?xml version="1.0" encoding="UTF-8"?>
<svg enable-background="new 0 0 24 24" version="1.1" viewBox="0 0 24 24" xml:space="preserve" xmlns="http://www.w3.org/2000/svg">
<path d="m17.4 16.7h0.3c0.3 0 0.5 0.2 0.5 0.5s-0.2 0.5-0.5 0.5h-1.5c-0.3 0-0.5-0.2-0.5-0.5v-1.5c0-0.3 0.2-0.5 0.5-0.5s0.5 0.2 0.5 0.5v0.3c0.9-0.8 2.2-1.1 3.4-0.9 2.5 0.3 4.2 2.6 3.9 5-0.3 2.5-2.6 4.2-5 3.9s-4.2-2.6-3.9-5c0-0.2 0.3-0.4 0.5-0.4 0.3 0 0.5 0.3 0.5 0.6v0.4c0 2 1.6 3.5 3.5 3.5 2 0 3.5-1.6 3.5-3.5 0-2-1.6-3.5-3.5-3.5-0.8-0.1-1.5 0.1-2.2 0.6zm-10.4-2.1v0.6c0 0.4 0.1 0.8 0.2 1 1 1.3 2.5 2 4.7 2 1.2 0 2.2-0.2 3.1-0.7 0-0.1-0.1-0.2-0.1-0.4v-1.5c0-0.7 0.5-1.2 1.2-1.2 0.3 0 0.6 0.1 0.8 0.3v-0.1c0-0.8-0.7-1.4-1.4-1.4h-7.1c-0.8 0-1.4 0.7-1.4 1.4zm8.1-5.7c0-1.7-1.4-3.1-3.1-3.1s-3.1 1.4-3.1 3.1 1.4 3.1 3.1 3.1 3.1-1.4 3.1-3.1zm0.3 13.8c-0.3-0.3-0.5-0.7-0.7-1.1-0.8 0.3-1.7 0.4-2.7 0.4-5.5 0-10-4.5-10-10s4.5-10 10-10 10 4.4 10 10c0 1-0.1 1.9-0.4 2.7 0.6 0.3 1.2 0.7 1.7 1.2 0.4-1.2 0.7-2.6 0.7-4 0-6.6-5.4-12-12-12s-12 5.5-12 12.1 5.4 12 12 12c1.4 0 2.7-0.3 4-0.7l-0.6-0.6z"/>
</svg>
