<svg viewBox="0 0 24 24" xmlns="http://www.w3.org/2000/svg"><path d="m8.4 13.2h7.2c0.7 0 1.4 0.6 1.4 1.4v0.6c0 0.2 0 0.4-0.1 0.6h-1.2c-0.7 0-1.2 0.5-1.2 1.2 0 0.3 0.1 0.5 0.2 0.7-0.7 0.3-1.7 0.5-2.8 0.5-2.2 0-3.7-0.7-4.7-2-0.1-0.2-0.2-0.6-0.2-1v-0.6c0-0.7 0.6-1.4 1.4-1.4zm6.7-4.3c0-1.7-1.4-3.1-3.1-3.1s-3.1 1.4-3.1 3.1 1.4 3.1 3.1 3.1 3.1-1.4 3.1-3.1zm0.8 14.1-0.2-1.7c-1.1 0.4-2.4 0.7-3.7 0.7-5.5 0-10-4.5-10-10s4.5-10 10-10 10 4.4 10 10c0 1.2-0.2 2.3-0.6 3.4 0.1 0.1 0.1 0.3 0.2 0.4h1.6 0.2c0.4-1.2 0.6-2.5 0.6-3.8 0-6.6-5.4-12-12-12s-12 5.4-12 12 5.4 12 12 12c1.4 0 2.7-0.2 3.9-0.7v-0.3zm7.3-6.5h-2.2c0-0.8-0.7-1.5-1.5-1.5s-1.5 0.7-1.5 1.5h-2.2c-0.2 0-0.4 0.2-0.4 0.4s0.2 0.4 0.4 0.4h0.4l0.5 5.5c0.1 0.6 0.6 1.1 1.2 1.1h3.2c0.6 0 1.1-0.5 1.2-1.1l0.5-5.5h0.4 0.1c0.2 0 0.4-0.2 0.4-0.4-0.1-0.2-0.3-0.4-0.5-0.4zm-2.4 2.2v3.1c0 0.1-0.1 0.3-0.3 0.3s-0.3-0.1-0.4-0.3v-3.1c0-0.2 0.2-0.3 0.3-0.3 0.2 0 0.3 0.1 0.4 0.3zm-2 0v3.1c0 0.1-0.1 0.3-0.3 0.3s-0.3-0.1-0.4-0.3v-3.1c0-0.2 0.2-0.3 0.3-0.3 0.2 0 0.4 0.1 0.4 0.3zm1.3-2.2h-1.3c0-0.4 0.3-0.7 0.7-0.7s0.6 0.4 0.6 0.7z"/></svg>
