<svg viewBox="0 0 24 24" xmlns="http://www.w3.org/2000/svg"><path d="m19.3 14.6c2.6 0 4.7 2.1 4.7 4.7s-2.1 4.7-4.7 4.7-4.7-2.1-4.7-4.7 2.1-4.7 4.7-4.7zm0 0.7c-2.2 0-4 1.8-4 4s1.8 4 4 4 4-1.8 4-4-1.8-4-4-4zm0 1.6c0.2 0 0.4 0.2 0.4 0.4v1.7h1.7c0.2 0 0.4 0.2 0.4 0.4s-0.2 0.4-0.4 0.4h-1.7v1.7c0 0.2-0.2 0.4-0.4 0.4s-0.4-0.2-0.4-0.4v-1.7h-1.7c-0.2 0-0.4-0.2-0.4-0.4s0.2-0.4 0.4-0.4h1.7v-1.7c0-0.2 0.2-0.4 0.4-0.4zm-5.2 4.9c-0.7 0.1-1.4 0.2-2.1 0.2-5.5 0-10-4.5-10-10s4.5-10 10-10 10 4.4 10 10c0 0.7-0.1 1.4-0.2 2.1 0.7 0.3 1.2 0.8 1.7 1.3 0.3-1.1 0.5-2.2 0.5-3.4 0-6.6-5.4-12-12-12s-12 5.4-12 12 5.4 12 12 12c1.2 0 2.3-0.2 3.4-0.5-0.5-0.5-0.9-1.1-1.3-1.7zm2.8-7.7c-0.2-0.5-0.8-0.9-1.3-0.9h-7.2c-0.8 0-1.4 0.7-1.4 1.4v0.6c0 0.4 0.1 0.8 0.2 1 1 1.3 2.5 2 4.7 2 0.7 0 1.3-0.1 1.8-0.2 0.4-1.7 1.6-3.2 3.2-3.9zm-1.8-5.2c0-1.7-1.4-3.1-3.1-3.1s-3.1 1.4-3.1 3.1 1.4 3.1 3.1 3.1 3.1-1.4 3.1-3.1z"/></svg>