<svg viewBox="0 0 24 24" xmlns="http://www.w3.org/2000/svg"><linearGradient id="historySend" x1="10.295" x2="15.47" y1="21.416" y2="7.1978" gradientTransform="matrix(1 0 0 -1 0 26)" gradientUnits="userSpaceOnUse"><stop stop-color="#FF7170" offset=".1"/><stop stop-color="#FFE57F" offset=".9"/></linearGradient><path d="m6.9 8.7 4.5-4.5c0.3-0.3 0.7-0.3 1-0.1l4.6 4.6c0.3 0.3 0.3 0.8 0 1.1s-0.7 0.3-1 0.1l-3.3-3.3v12.7c0 0.4-0.3 0.7-0.6 0.7h-0.1c-0.4 0-0.7-0.3-0.7-0.6v-12.8l-3.3 3.2c-0.3 0.3-0.7 0.3-1 0.1l-0.1-0.1c-0.2-0.3-0.3-0.7 0-1.1l4.5-4.5-4.5 4.5z" style="fill: url(#historySend);"/></svg>